# xmcd CD database file
#
# Track frame offsets:
#	150
#	13975
#	27599
#	43070
#	59592
#	74546
#	95163
#	109213
#	127463
#	149701
#	169000
#	187108
#	203725
#	225066
#	241333
#	261274
#	280744
#	301951
#
# Disc length: 4314 seconds
#
# Revision: 0
# Processed by: cddbd v1.5.1PL0 Copyright (c) Steve Scherf et al.
# Submitted via: CDex 1.51
#
DISCID=1c10d812
DTITLE=Various Artist - ぼくらのオリジナルカラオケ 70・80年代アイドル編 DISC3
DYEAR=2004
DGENRE=J-POP
TTITLE0=山本リンダ - やけどしそう (カラオケ)
TTITLE1=あべ静江 - コーヒーショップで (カラオケ)
TTITLE2=岡田奈々 - ひとりごと (カラオケ)
TTITLE3=荒木由美子 - ミステリアス チャイルド (カラオケ)
TTITLE4=石川ひとみ - 冬のかもめ (カラオケ)
TTITLE5=岩崎良美 - コーラス・ワーク (カラオケ)
TTITLE6=中島めぐみ - レディ！ごきげんな毎日を (カラオケ)
TTITLE7=堀ちえみ - 涙をありがとう (カラオケ)
TTITLE8=森尾由美 - 秋色のマドモワゼル (カラオケ)
TTITLE9=岡田有希子 - 秘密のシンフォニー (カラオケ)
TTITLE10=宇沙美ゆかり - と・き・め・き タイフーン (カラオケ)
TTITLE11=フローレンス - メイビー, 愛Love You... (カラオケ)
TTITLE12=斉藤由貴 - AXIA 〜かなしいことり〜 (カラオケ)
TTITLE13=井森美幸 - 恋人になる100の方法 (カラオケ)
TTITLE14=つみきみほ - 君はララバイ (カラオケ)
TTITLE15=小高恵美 - 早春の駅 (カラオケ)
TTITLE16=西田ひかる - 心だけそばにいる 〜here in my heart〜 (カラオケ)
TTITLE17=里中茶美 - 失恋 (カラオケ)
EXTD=YEAR: 2004
EXTT0=
EXTT1=
EXTT2=
EXTT3=
EXTT4=
EXTT5=
EXTT6=
EXTT7=
EXTT8=
EXTT9=
EXTT10=
EXTT11=
EXTT12=
EXTT13=
EXTT14=
EXTT15=
EXTT16=
EXTT17=
PLAYORDER=
